<svg xmlns="http://www.w3.org/2000/svg" width="206" height="55" viewBox="0 0 206 55" fill="none"><path fill-rule="evenodd" clip-rule="evenodd" d="M3.84649 1.16016C1.81625 1.16016 0.17041 2.806 0.17041 4.83624V50.5923C0.17041 52.6225 1.81625 54.2684 3.8465 54.2684H14.7503C16.7805 54.2684 18.4264 52.6225 18.4264 50.5923V4.83624C18.4264 2.806 16.7805 1.16016 14.7503 1.16016H3.84649ZM9.02189 49.2899C11.1606 49.2899 12.8944 47.5561 12.8944 45.4174C12.8944 43.2787 11.1606 41.5449 9.02189 41.5449C6.88318 41.5449 5.14941 43.2787 5.14941 45.4174C5.14941 47.5561 6.88318 49.2899 9.02189 49.2899Z" fill="#FFC30D"></path><path fill-rule="evenodd" clip-rule="evenodd" d="M46.9969 1.16016C44.9666 1.16016 43.3208 2.806 43.3208 4.83624V50.5923C43.3208 52.6225 44.9666 54.2684 46.9969 54.2684H57.9007C59.9309 54.2684 61.5767 52.6225 61.5767 50.5923V4.83624C61.5767 2.806 59.9309 1.16016 57.9007 1.16016H46.9969ZM52.7253 49.2899C54.864 49.2899 56.5977 47.5561 56.5977 45.4174C56.5977 43.2787 54.864 41.5449 52.7253 41.5449C50.5865 41.5449 48.8528 43.2787 48.8528 45.4174C48.8528 47.5561 50.5865 49.2899 52.7253 49.2899Z" fill="#04C7D9"></path><path fill-rule="evenodd" clip-rule="evenodd" d="M27.7573 0.786212C25.7348 0.609265 23.9518 2.1054 23.7748 4.12792L19.7869 49.7098C19.61 51.7324 21.1061 53.5154 23.1286 53.6923L33.9909 54.6427C36.0134 54.8196 37.7965 53.3235 37.9734 51.301L41.9613 5.71903C42.1383 3.69651 40.6421 1.91349 38.6196 1.73654L27.7573 0.786212ZM28.7184 49.1829C30.8489 49.3693 32.7272 47.7932 32.9136 45.6626C33.1 43.5321 31.524 41.6538 29.3934 41.4674C27.2628 41.281 25.3845 42.8571 25.1981 44.9876C25.0117 47.1182 26.5878 48.9965 28.7184 49.1829Z" fill="#FF6890"></path><path fill-rule="evenodd" clip-rule="evenodd" d="M94.1944 41.0067C94.2088 40.7859 94.216 40.5578 94.216 40.3223V39.7041V21.6009C94.216 20.8355 93.9579 20.1879 93.4417 19.6581C92.9256 19.1282 92.2948 18.8633 91.5493 18.8633C90.8037 18.8633 90.1729 19.1282 89.6568 19.6581C89.1406 20.1879 88.8826 20.8355 88.8826 21.6009V28.8863H88.8396C87.4058 27.7383 85.8001 26.9141 84.0223 26.4137C82.2445 25.9133 80.4524 25.7808 78.6459 26.0163C76.8394 26.2518 75.1333 26.8331 73.5276 27.7604C71.9218 28.6876 70.5598 29.9019 69.4415 31.4031C68.5526 32.61 67.8644 33.9199 67.377 35.3329C66.8895 36.7458 66.6171 38.2029 66.5598 39.7041C66.5024 42.1179 67.0114 44.4066 68.0867 46.5701C69.162 48.7337 70.6745 50.4925 72.6243 51.8466C74.6602 53.2595 76.8968 54.0543 79.3341 54.2309C81.7714 54.4075 84.094 53.966 86.3019 52.9063C87.3628 52.3764 88.3449 51.7215 89.2482 50.9414C90.1514 50.1613 90.9399 49.2856 91.6138 48.3142C92.2876 47.3428 92.8396 46.2979 93.2697 45.1793C93.6998 44.0607 93.9866 42.898 94.1299 41.6911C94.1586 41.4556 94.1801 41.2275 94.1944 41.0067ZM88.5013 37.1171C89.0196 38.6162 89.1276 40.1373 88.8253 41.6805C88.5229 43.2238 87.8679 44.5979 86.86 45.8031C86.1114 46.6849 85.19 47.4051 84.0957 47.9636C83.8102 48.0948 83.5281 48.2187 83.2496 48.3355C83.4453 48.2462 83.6409 48.1516 83.8366 48.0518C82.944 48.4633 82.0081 48.6984 81.0291 48.7572C80.0501 48.816 79.0999 48.7278 78.1784 48.4927C77.2282 48.2281 76.3428 47.7946 75.5221 47.192C74.7015 46.5894 74.0032 45.8619 73.4273 45.0095C72.8514 44.2158 72.4411 43.3413 72.1963 42.386C71.9516 41.4307 71.858 40.468 71.9156 39.498C71.9732 38.381 72.2323 37.3302 72.693 36.3455C73.1538 35.3608 73.7584 34.4863 74.5071 33.722C74.8814 33.3693 75.2774 33.0607 75.6949 32.7961C76.1124 32.5316 76.5515 32.2817 77.0122 32.0466C78.0777 31.5468 79.2078 31.297 80.4028 31.297C81.5978 31.297 82.7424 31.5468 83.8366 32.0466C84.902 32.5169 85.845 33.1929 86.6657 34.0748C87.4863 34.9566 88.0982 35.9707 88.5013 37.1171ZM83.2496 48.3355C82.9665 48.4541 82.687 48.5653 82.4113 48.6691C82.6704 48.5809 82.9152 48.4853 83.1455 48.3825C83.1802 48.367 83.2149 48.3513 83.2496 48.3355ZM115.422 26.7366C113.241 26.0347 111.023 25.8739 108.769 26.2541C107.012 26.5757 105.358 27.1898 103.806 28.0964C102.254 29.0029 100.937 30.1873 99.8536 31.6494H99.8097C99.5169 32.0296 99.268 32.4097 99.063 32.7899C98.4189 33.8134 97.9285 34.9027 97.5918 36.0578C97.2551 37.2129 97.0575 38.3826 96.9989 39.567C96.9404 40.7513 97.0355 41.9284 97.2844 43.0981C97.5332 44.2678 97.9212 45.3937 98.4482 46.4757C99.0045 47.5869 99.6925 48.5958 100.512 49.5023C101.332 50.4089 102.247 51.1984 103.257 51.871C104.267 52.5436 105.358 53.0846 106.529 53.494C107.7 53.9034 108.901 54.152 110.13 54.2397C112.502 54.3859 114.786 53.9546 116.982 52.9457C119.177 51.9368 120.993 50.4673 122.427 48.5373C123.306 47.3383 123.986 46.0297 124.47 44.6114C124.953 43.1931 125.194 41.7383 125.194 40.2469C125.223 38.3753 124.879 36.5696 124.162 34.8296C123.445 33.0896 122.427 31.5617 121.11 30.2457C119.5 28.6081 117.604 27.4384 115.422 26.7366ZM119.432 42.0934C119.187 43.1307 118.761 44.096 118.155 44.9892C117.607 45.7671 116.943 46.4442 116.164 47.0205C115.385 47.5968 114.533 48.029 113.61 48.3171C112.657 48.634 111.676 48.7709 110.666 48.7277C109.656 48.6845 108.689 48.4612 107.766 48.0578C106.871 47.6544 106.063 47.1286 105.342 46.4803C104.679 45.8851 104.127 45.2111 103.683 44.4581C103.604 44.3013 103.522 44.147 103.437 43.9951C102.889 42.9578 102.586 41.8341 102.528 40.624C102.441 39.068 102.759 37.5986 103.48 36.2155C104.202 34.8325 105.212 33.7232 106.511 32.8876C107.521 32.2537 108.617 31.8503 109.8 31.6775C110.984 31.5046 112.138 31.5766 113.263 31.8936C114.418 32.1817 115.457 32.7003 116.38 33.4495C117.304 34.1986 118.054 35.0918 118.631 36.1291C119.093 36.9359 119.41 37.8723 119.584 38.9384C119.728 40.0045 119.677 41.0562 119.432 42.0934ZM103.853 44.8051C103.756 44.6239 103.66 44.4403 103.567 44.2544C103.605 44.323 103.644 44.3909 103.683 44.4581C103.739 44.5691 103.795 44.6813 103.848 44.7947C103.85 44.7982 103.852 44.8016 103.853 44.8051ZM104.303 45.5942C104.148 45.3363 103.998 45.0733 103.853 44.8051C103.982 45.0752 104.132 45.3382 104.303 45.5942ZM145.176 48.7827C145.931 48.7827 146.57 49.0532 147.093 49.5944C147.616 50.1356 147.878 50.7864 147.878 51.547C147.878 52.3076 147.616 52.9511 147.093 53.4776C146.57 54.0042 145.931 54.2675 145.176 54.2675H141.951C140.034 54.2675 138.225 53.8945 136.525 53.1486C134.826 52.4026 133.344 51.3934 132.08 50.121C130.817 48.8485 129.814 47.3566 129.073 45.6454C128.333 43.9341 127.962 42.0986 127.962 40.1386C127.962 38.208 128.333 36.3871 129.073 34.6758C129.814 32.9645 130.817 31.4727 132.08 30.2002C133.344 28.9277 134.826 27.9185 136.525 27.1726C138.225 26.4267 140.034 26.0537 141.951 26.0537H145.176C145.931 26.0537 146.57 26.317 147.093 26.8435C147.616 27.3701 147.878 28.0136 147.878 28.7742C147.878 29.5347 147.616 30.1856 147.093 30.7267C146.57 31.2679 145.931 31.5385 145.176 31.5385H141.951C140.76 31.5385 139.649 31.7652 138.617 32.2186C137.586 32.672 136.678 33.2863 135.894 34.0615C135.109 34.8367 134.492 35.7508 134.041 36.8039C133.591 37.857 133.366 38.9685 133.366 40.1386C133.366 41.338 133.591 42.4642 134.041 43.5173C134.492 44.5704 135.109 45.4845 135.894 46.2597C136.678 47.0349 137.586 47.6491 138.617 48.1026C139.649 48.556 140.76 48.7827 141.951 48.7827H145.176ZM176.137 26.0537C176.897 26.0537 177.541 26.317 178.067 26.8435C178.594 27.3701 178.857 28.0136 178.857 28.7742V31.5824C178.828 32.5185 178.726 33.4253 178.55 34.3028C178.375 35.1804 178.097 36.0433 177.716 36.8917C177.014 38.5298 176.02 40.0216 174.733 41.3672C174.06 42.0108 173.358 42.5885 172.627 43.1004C171.895 43.6123 171.105 44.0438 170.257 44.3948C169.789 44.5704 169.328 44.7312 168.875 44.8775C168.422 45.0238 167.946 45.1408 167.449 45.2285V51.5909C167.449 52.3514 167.186 52.9877 166.659 53.4996C166.133 54.0115 165.489 54.2675 164.728 54.2675C163.997 54.2675 163.368 54.0115 162.842 53.4996C162.315 52.9877 162.052 52.3514 162.052 51.5909V45.2285C161.555 45.1408 161.079 45.0238 160.626 44.8775C160.172 44.7312 159.712 44.5704 159.244 44.3948C158.395 44.0438 157.606 43.6123 156.874 43.1004C156.143 42.5885 155.441 42.0108 154.768 41.3672C153.481 40.0509 152.472 38.559 151.741 36.8917C151.068 35.2243 150.702 33.4545 150.644 31.5824V28.7742C150.644 28.0136 150.907 27.3701 151.433 26.8435C151.96 26.317 152.603 26.0537 153.364 26.0537C154.125 26.0537 154.761 26.317 155.273 26.8435C155.785 27.3701 156.041 28.0136 156.041 28.7742V31.4069C156.041 32.6062 156.267 33.7324 156.721 34.7855C157.174 35.8386 157.796 36.76 158.586 37.5498C159.375 38.3396 160.297 38.9612 161.35 39.4147C162.403 39.8681 163.529 40.0948 164.728 40.0948C165.928 40.0948 167.061 39.8681 168.129 39.4147C169.197 38.9612 170.126 38.3396 170.915 37.5498C171.705 36.76 172.327 35.8386 172.78 34.7855C173.234 33.7324 173.46 32.6062 173.46 31.4069V28.7742C173.46 28.0136 173.716 27.3701 174.228 26.8435C174.74 26.317 175.376 26.0537 176.137 26.0537ZM203.312 26.0537C204.054 26.0537 204.681 26.3239 205.195 26.8642C205.708 27.4045 205.965 28.0544 205.965 28.8138C205.965 29.5731 205.708 30.2157 205.195 30.7414C204.681 31.2671 204.054 31.53 203.312 31.53H200.019H196.468V51.5512C196.468 52.3106 196.204 52.9531 195.676 53.4789C195.149 54.0046 194.514 54.2675 193.773 54.2675C193.031 54.2675 192.404 54.0046 191.891 53.4789C191.377 52.9531 191.12 52.3106 191.12 51.5512V31.53H187.869H184.276C183.534 31.53 182.907 31.2671 182.394 30.7414C181.88 30.2157 181.624 29.5731 181.624 28.8138C181.624 28.0544 181.88 27.4045 182.394 26.8642C182.907 26.3239 183.534 26.0537 184.276 26.0537H187.869H200.019H203.312Z" fill="#005377"></path></svg>